<?xml version="1.0" encoding="utf-8"?>
<!-- Generator: Adobe Illustrator 19.2.1, SVG Export Plug-In . SVG Version: 6.00 Build 0)  -->
<svg version="1.1" id="Layer_1" xmlns="http://www.w3.org/2000/svg" xmlns:xlink="http://www.w3.org/1999/xlink" x="0px" y="0px"
	 viewBox="0 0 50 50" style="enable-background:new 0 0 50 50;" xml:space="preserve">
<style type="text/css">
	.st0{fill:#1D1C1A;}
</style>
<path class="st0" d="M16.5,20v24.5c0,0.6,0.2,1.2,0.7,1.7c0.5,0.5,1,0.7,1.6,0.7c0.6,0,1.2-0.2,1.6-0.7c0.5-0.5,0.7-1,0.7-1.7V20
	c0.7-0.2,3.3-2.6,3.3-3.3V6.8c0-0.3-0.1-0.6-0.3-0.8c-0.2-0.2-0.5-0.3-0.8-0.3c-0.3,0-0.6,0.1-0.8,0.3c-0.2,0.2-0.4,0.5-0.4,0.8v7.6
	c0,0.3-0.1,0.6-0.3,0.8c-0.2,0.2-0.5,0.3-0.8,0.3c-0.3,0-0.6-0.1-0.8-0.3c-0.2-0.2-0.3-0.5-0.3-0.8V6.8c0-0.3-0.1-0.6-0.3-0.8
	c-0.2-0.2-0.5-0.3-0.8-0.3c-0.3,0-0.6,0.1-0.8,0.3c-0.2,0.2-0.3,0.5-0.3,0.8v7.6c0,0.3-0.1,0.6-0.3,0.8c-0.2,0.2-0.5,0.3-0.8,0.3
	c-0.3,0-0.6-0.1-0.8-0.3c-0.2-0.2-0.3-0.5-0.3-0.8V6.8c0-0.3-0.1-0.6-0.4-0.8c-0.2-0.2-0.5-0.3-0.8-0.3c-0.3,0-0.6,0.1-0.8,0.3
	c-0.2,0.2-0.3,0.5-0.3,0.8v9.8C12.7,17.4,15.8,19.7,16.5,20L16.5,20z M16.5,20"/>
<path class="st0" d="M18.9,46.8C18.9,46.8,18.9,46.8,18.9,46.8C18.8,46.8,18.8,46.8,18.9,46.8L18.9,46.8z M18.9,46.8"/>
<path class="st0" d="M28.9,25.8h2.7v19.1c0,0.6,0.2,1.2,0.7,1.7c0.5,0.5,1,0.7,1.6,0.7c0.6,0,1.2-0.2,1.6-0.7c0.5-0.5,0.7-1,0.7-1.7
	V5.8c0-0.3-0.1-0.6-0.3-0.8c-0.2-0.2-0.5-0.3-0.8-0.3h-0.8c-1.6,0-3,0.6-4.2,1.7c-1.2,1.2-1.7,2.5-1.7,4.2v14.7
	c0,0.2,0.1,0.3,0.2,0.4C28.6,25.8,28.7,25.8,28.9,25.8L28.9,25.8z M28.9,25.8"/>
</svg>
